<svg xmlns="http://www.w3.org/2000/svg" xml:space="preserve" width="120" height="50" style="shape-rendering:geometricPrecision;text-rendering:geometricPrecision;image-rendering:optimizeQuality;fill-rule:evenodd;clip-rule:evenodd" viewBox="0 0 6.827 6.827"><defs><clipPath id="id0"><path d="M3.413 0a3.413 3.413 0 1 1 0 6.827 3.413 3.413 0 0 1 0-6.827z"/></clipPath><style>.fil7{fill:#8bc34a}.fil6{fill:#9dd45d}.fil1{fill:#bdbdbd}</style></defs><g id="Layer_x0020_1"><path d="M3.413 0a3.413 3.413 0 1 1 0 6.827 3.413 3.413 0 0 1 0-6.827z" style="fill:#e0e0e0"/><g style="clip-path:url(#id0)"><g id="_457196768"><path id="_4432958321" class="fil1" d="M4.854 2.226 8.64 6.012l.055.07.053.074.048.076.045.078.041.08.038.083.033.085.03.086.024.09.021.09.017.091.012.094.007.095.002.096L5.28 3.413l-.002-.096-.008-.095-.012-.093-.016-.092-.02-.09-.026-.089-.03-.087-.033-.084-.037-.083-.041-.08-.045-.079-.049-.075-.052-.074z"/><path id="_443295856" class="fil1" d="M5.28 3.413 9.066 7.2l-.002.096-.007.094-.012.094-.017.092-.02.09-.026.089-.029.086-.033.085-.038.083-.041.08-.045.079-.049.075-.052.073-.055.071-.059.068-.061.065-.065.061-.068.059-.07.055-.074.052-.075.049-.079.045-.08.041-.083.038-.085.033-.086.03-.089.025-.09.02-.092.017-.094.012-.094.007-.096.002L3.413 5.28l.096-.002.095-.008.094-.011.092-.017.09-.02.088-.026.087-.03.085-.033.083-.037.08-.041.078-.045.076-.049.073-.052.07-.055.068-.059.065-.062.062-.065.059-.067.055-.07.052-.074.049-.076.045-.078.04-.08.038-.083.034-.085.03-.087.024-.088.021-.09.016-.092.012-.094.008-.095z"/><path id="_443296768" class="fil1" d="M3.413 5.28 7.2 9.066 3.412 5.28z"/><path id="_443297032" class="fil1" d="M3.413 5.28 7.2 9.066l-.096-.002-.094-.007-.094-.012-.092-.017-.09-.02-.089-.026-.086-.029-.085-.033-.083-.038-.08-.041-.078-.045-.076-.048-.073-.053-.07-.055-3.787-3.786.07.055.074.052.075.049.079.045.08.041.083.037.085.034.086.03.089.024.09.021.092.017.093.011.095.008z"/><path id="_457197416" class="fil1" d="M3.413 1.547a1.867 1.867 0 1 1 0 3.733 1.867 1.867 0 0 1 0-3.733z"/></g></g><path d="M3.413 0a3.413 3.413 0 1 1 0 6.827 3.413 3.413 0 0 1 0-6.827z" style="fill:none"/><path d="M3.736 4.402h.002c-.01-.004-.013-.005-.002 0z" style="fill:#8bc34a;fill-rule:nonzero"/><path d="M5.28 3.413a1.867 1.867 0 1 1-3.733 0 1.867 1.867 0 0 1 3.733 0z" style="fill:#00bcd4"/><path d="M3.567 3.063h.008l.006.001h-.014zm1.362.38-.018.012c-.007.005-.017.004-.035.004-.018 0-.014.004-.029.004-.014 0-.009.009-.022.01l-.03.003c-.008 0-.008-.01-.013-.01l-.008-.008v-.02c0-.008-.005-.013-.011-.018-.007-.005-.007-.01-.016-.02-.01-.01-.023-.023-.036-.025-.013-.003-.001-.008-.019-.03-.017-.024-.007-.01-.01-.026-.002-.007-.004-.01-.007-.011-.003-.003-.009-.004-.017-.012l-.014-.014c-.002-.006-.001-.02-.001-.025 0-.004-.016-.033-.021-.047-.006-.015-.015-.007-.011-.01.002-.003 0-.005-.003-.01a.072.072 0 0 1-.008-.02.111.111 0 0 0-.027-.052c-.013-.014-.009-.012-.01-.022 0-.01-.022-.028-.023-.035 0-.006-.007-.018-.004-.014l.016.027c.004.006.001.005.02.02.018.014.005-.004.006-.019 0-.004 0-.01-.002-.018-.004-.018-.011-.038-.014-.038-.004 0-.007-.002-.018-.002s-.008-.003-.02-.003c-.01 0-.008-.009-.027-.01-.018 0-.019.012-.033.017-.013.005-.039-.017-.046-.019h-.034c-.004 0-.008-.004-.013-.006l-.006-.002c-.01 0-.029-.01-.029-.01L4.32 2.97c-.01-.01-.022-.002-.031-.003-.009 0-.013.012-.02.017-.007.005.001.022.001.031 0 .01-.005.003-.013.008-.007.005-.025 0-.034-.007-.01-.007-.003-.005-.011-.012S4.182 3 4.177 3c-.006 0-.01 0-.011-.014a.02.02 0 0 0-.013-.017.47.47 0 0 0-.036-.004c-.01 0-.02-.004-.028-.004l-.011-.009-.011-.006c-.01 0-.013-.009-.013-.009s-.007-.007-.005-.015c0-.008.008-.012.013-.019.004-.007-.005-.018-.008-.022l.01-.018s-.013.008-.014 0c0-.006-.02-.01-.02-.01l-.02.003h-.02l-.02.001-.028-.001-.044.004c-.031.003-.033.002-.038.001a.107.107 0 0 0-.016.002s-.02.002-.026.006c-.007.004-.008.008-.015.008-.006 0-.013 0-.026.005s0 0-.005.006l-.01.005h-.005l-.014-.005c-.005-.002-.01 0-.017-.001l-.022-.001c-.007 0-.017-.007-.017-.007s-.007-.01-.02-.012c-.011-.002-.01.005-.01.005s0 .007-.003.013c-.001.005-.008.012-.008.02 0 .006-.013.006-.017.011-.003.006-.012.005-.022.01-.01.003-.02.001-.026.01-.007.01-.016.017-.018.024-.001.007-.009.01-.008.019a.07.07 0 0 0 .004.018l-.002.012s-.014.01-.014.02-.027.007-.027.007-.02.008-.026.013c-.005.006-.02.008-.025.01-.005.001.003.019-.026.03-.03.013-.03.036-.033.042l-.013.015c-.008.007-.012.022-.012.022s-.019.017-.026.028c-.008.012-.006.006-.008.016s.004.01.008.018c.004.007.002.006.011.009.01.003 0 .019 0 .032 0 .013.002.007.002.02 0 .014-.004.018-.004.034v.011c0 .006 0 .006-.003.01l-.018.024s-.004.009-.004.016v.018c0 .009 0 0-.003.013-.004.013 0 0-.002.01s.013.018.013.018l.001.001.007.008c.007.008.025.004.025.004-.005.009.006.014.011.016l.004.001s.007.012.015.016c.007.004.005.007.017.014a.045.045 0 0 1 .014.017l.002.006v.017c0 .005.013.012.019.016l.022.011.007.004c.006.004.008.009.013.013l.04.026s.02.01.034.019c.014.01.02.004.02.004l.004-.001.015-.003s.018-.009.023-.009c.006 0 .013-.007.032-.008h.04c.016-.001.007.003.017.007a.028.028 0 0 0 .016 0h.005l.017-.007s.014-.003.019-.006c.005-.003.015-.009.024-.009.008 0 .01-.007.02-.007s.01-.009.01-.009h.006l.024-.005h.035c.013 0 .011.005.029.015.017.011.003.011 0 .024-.001.012.006.01.017.01.011 0 .023-.006.032-.006a.15.15 0 0 0 .032-.01v.001l.011.013s.008.006.019.022c.007.011.003.018 0 .024l-.005.007a.168.168 0 0 0-.007.022l-.002.01c0 .008-.011.015-.015.036-.004.017.023.047.046.068l.013.01c.006.005.01.01.013.016a.073.073 0 0 1 .006.023c.002.013.002.026.006.037.008.021.023.023.014.024-.01 0-.005.034.004.039.008.005.01.038-.01.065a.389.389 0 0 0-.05.122c-.005.029.047.122.047.123 0 0 .01.061.006.089-.002.022.018.048.026.061l.003.007c.002.009 0 .033.017.06.017.027-.012.05.005.085.017.034.033.02.058.004.026-.017.038-.002.05-.002.012 0 .04-.018.057-.018.018-.001.015-.03.051-.044.037-.014.043-.024.052-.056.01-.031.03-.041.052-.058.019-.014.02-.02.014-.04l-.003-.01c-.009-.026.05-.044.049-.044.01 0 .018-.014.024-.044.005-.03.004-.05-.011-.066-.016-.017.007-.022.018-.029A.152.152 0 0 0 4.6 4.15c.009-.01.012-.02.018-.026.006-.006.03-.014.038-.02.007-.006.021-.015.032-.03.01-.014.012-.015.009-.03-.003-.016 0-.016.003-.046.002-.03.005-.036.005-.036L4.7 3.945a.287.287 0 0 1-.009-.036c-.003-.018.001-.027-.004-.035-.005-.008-.007-.015-.007-.034 0-.018.012-.008.013-.02v-.002c0-.014.002-.02.01-.025.01-.006 0-.024.01-.027.009-.002.02-.017.023-.021v-.002l.019-.017.025-.033c.004-.008.024-.021.028-.025s.017-.006.02-.01a.164.164 0 0 1 .028-.033.108.108 0 0 0 .026-.034c.005-.011.008-.024.024-.05.016-.027.019-.081.028-.093.01-.01-.005-.006-.005-.006z" style="fill:#95cc56"/><path class="fil6" d="m2.095 2.4.016-.008c.006-.004.02-.028.023-.032l-.04.003-.025.033c-.004.006-.002.027-.007.029-.005.002-.015.024-.022.03-.006.006-.015.022-.015.022l.009.013.015-.006.012-.019.02-.007a1.708 1.708 0 0 1-.003-.016l.001-.019.016-.023zM2.376 2.422c.007-.003.025.004.03.011.003.008.005.01.014-.003.01-.013.002-.018.025-.03.022-.01.03-.023.004-.024-.026-.002-.022-.005-.042-.007-.019-.001-.033.013-.036.004-.003-.008.03-.02.03-.02s.022-.022.004-.016c-.018.006-.052.009-.035.002.016-.007-.013-.008-.013-.008l-.007-.013s-.025.003-.02-.003c.005-.005-.022 0-.017-.005.006-.004.01-.016.005-.014-.004.002-.03-.003-.047.006-.017.009-.004.026.003.023.006-.002.017.002.017.002l-.018.009-.031.016.009-.014.008-.015-.002-.011-.024.012-.02.01-.014.012.009-.022-.015.02c-.005.005.004.05-.001.053-.005.002-.018-.015-.018-.015l.01-.02c.002-.005-.016-.013-.016-.013-.01.01-.018.022-.027.033l-.015.018.002.019.023-.007-.022.017.003.01.019-.007s.029-.005.05-.014l.042-.017.01-.016s.03 0 .034.01c.005.012.024.01.026.021.002.01-.005.021-.016.028-.012.006-.017.032-.017.032s0 .01-.008.014c-.01.003-.027.003-.033.008l-.017.015s-.02.033-.006.028c.014-.006.01-.009.018-.012.009-.004.044-.03.051-.006.007.024.025.018.033.016.008-.002.033.002.032-.002-.001-.005.02-.01-.001-.021-.02-.012-.012-.024 0-.015.011.01.025.013.03-.004.005-.018.023-.024.004-.037-.02-.012-.02-.02-.02-.02s.006-.015.013-.018zM2.461 2.727l-.022.01.002.002s-.017.016-.022.031c-.005.015-.011.025-.02.031-.008.006-.013.04-.013.04l.03-.013a.132.132 0 0 0 .045-.025l.005.01.015.002s.01-.003.014-.01c.005-.005.004-.013.004-.013l-.004-.005-.003-.014-.002-.015s-.016-.001-.025.006c-.008.008-.013.004-.013.004l.007-.014s-.015.002-.02.005c.007-.007.042-.042.022-.032zM2.064 2.288l.018-.009.005.007.013-.004-.002-.019-.015-.003-.014.006-.023.014h.015l.003.008zM2.056 2.362c.007-.003.017-.002.018-.009.002-.007.002-.017.002-.017l.003-.015-.021.003v.012s-.002.02-.005.015c-.002-.006-.006-.024-.009-.02a.556.556 0 0 0-.013.023l.007.015.018-.007z"/><path class="fil6" d="M1.983 2.448 2 2.452s-.004.018.01.012c.015-.005.013-.014.013-.014l.024-.014c.006-.004-.003-.026-.003-.026l.011-.005s.012-.021.008-.028c-.004-.007-.018.013-.024.016a2.688 2.688 0 0 1-.018.007l-.01.012-.001.02-.012-.003c-.013-.002-.015.019-.015.019zM3.227 1.76a.408.408 0 0 0-.06.022.85.85 0 0 1-.038.015c-.003 0 .015-.012 0-.015l-.003-.001-.009-.01h-.011l-.01-.006-.018.007-.015.001h-.016l-.013.01-.003-.006-.01.004-.017.003-.009.006v-.001l-.01.002-.012.007-.015.006-.003-.003-.014.003-.014.01-.008.006-.006-.002-.019.007-.005.009-.004-.003-.015.005-.007.01-.011.01h-.008l-.016.008h-.006l-.012.016-.006.002-.009.007-.01.003-.003-.002-.011.01a1.54 1.54 0 0 0-.017.01l-.01.018-.016.01s.013-.012-.017 0l-.058.023a.123.123 0 0 0-.034.027c-.001.005-.022.015-.022.015s-.084.056-.066.052c.017-.003.026.007.003.017-.023.01-.043.035-.073.047-.03.013-.046.039-.02.028.027-.012.06-.023.06-.023s-.071.05-.04.044c.03-.006.025 0 .047-.01.023-.01.027-.03.054-.027.027.002.032-.003.035.013.003.016.017.028.008.044-.008.015-.027.026-.027.026s-.003.018.016.007c.019-.01.03-.03.032-.023.002.007.018.023.018.023s-.021-.002-.032.003-.025.017-.012.018a.114.114 0 0 0 .038-.006c.004-.001-.002.018-.01.022a.454.454 0 0 0-.035.028s-.024.027-.017.052c.006.026.01.03.014.045.003.014 0 .044.011.048.011.004.013.013.029.01.016-.002.026-.008.029-.009.003-.001.006.005.013.009.006.003.012 0 .03-.007l.015-.02a.43.43 0 0 0 .014-.035s.01-.016.006-.023c-.004-.008 0 .005.019-.017.018-.023.022-.027.02-.037-.002-.01-.007-.015-.003-.017.005-.001.01-.016.027-.023.017-.008.01.007.044-.022.033-.029.033-.03.049-.046.015-.017 0-.016.022-.03.022-.014.02-.011.044-.027.023-.015.031-.026.041-.03.01-.005.045-.034.077-.054.031-.021.025-.016.02-.014l-.066.016c-.013.005.01-.018.01-.018s.015-.015.018-.009c.003.007.009.013.029.005.02-.009.032-.017.018-.024l-.022-.011c-.01-.004-.011-.002-.024-.003-.013 0-.027-.003-.022-.005.006-.002.018-.01.036-.017l.031-.013c.01-.003.023-.001.022-.008 0-.004-.007-.005-.013-.005a.062.062 0 0 0 .026-.013c.012-.012.022-.023.007-.017-.015.005.01-.015.01-.015s.008-.019-.014-.01c-.023.007-.041 0-.016-.009.026-.009.043-.02.037-.02h-.038s-.003-.007.034-.03c.036-.024.04-.042.049-.045.01-.003.016-.01.03-.014.012-.005.018-.015.018-.015s-.001-.008-.03 0zM3.187 2.083c-.013.01-.013.007-.026.012s-.018.007-.025.015a.078.078 0 0 1-.026.016c-.01.004-.006-.006-.015-.008-.01-.003-.046.03-.04.034.007.004.02-.01.036-.016.016-.007-.001.007-.004.008l-.024.022.03-.006a3.084 3.084 0 0 0-.013.018s.023-.011.029-.01c.006.003.023.001.034-.003.01-.005.022-.01.022-.014s.025-.022.044-.032c.02-.01.032-.036.032-.036-.007-.013-.04-.01-.054 0zM2.09 2.354s.014-.008.02-.008c.005 0 .016-.008.016-.008s0-.02-.006-.017a.167.167 0 0 0-.02.011l-.01.022zM2.163 3.453s-.028-.012-.063-.02c-.035-.009-.035-.002-.044-.006-.01-.004-.008-.006-.022 0a.062.062 0 0 0-.028.023c-.004.007-.002.011-.002.011.003 0 .024-.02.03-.02.008 0 .007.009.015.006.009-.002.021-.004.027 0 .006.005.016-.005.016-.005l.007.013.012.001v.01a.098.098 0 0 0 .052-.013zM3.115 3.829c-.012-.013.004-.027-.017-.024-.02.002-.012.01-.043 0-.03-.01-.044-.019-.052-.022-.008-.003-.035-.018-.047-.018a.259.259 0 0 0-.028.003c-.012.001-.022.006-.032.004-.01-.003-.03-.014-.047.006l-.005.008a.156.156 0 0 0-.006-.02c-.003-.01-.005-.01-.027-.015l-.046-.01c-.011-.001-.02.004-.023.01l-.004.008c.002-.005.003-.011 0-.016-.007-.01-.016-.007-.023-.006l-.025.002s-.014-.007-.003-.014c.01-.006.012-.008.008-.017-.005-.009.002-.002-.016-.009-.018-.006-.012-.01-.02-.02l-.019-.023-.009-.003-.003-.001s-.042-.016-.051-.015h-.003c-.01.001-.022-.001-.034.001l-.023.005-.002-.002c-.006-.003-.022-.012-.028-.01-.007.002-.023-.028-.037-.025-.014.004-.028 0-.028 0s.013-.012.006-.016c-.007-.003-.007 0-.02-.002-.013-.003-.034-.006-.019-.009.015-.003.01-.005.01-.005l-.039.004s-.005.012-.011.015c-.007.004-.015-.006-.027-.004-.011.003-.01.009-.021.011a.01.01 0 0 1-.013-.007s-.005-.007-.01-.006l-.026.007c-.005.001-.022.018-.012.026.01.007.019.016.01.018-.007.002-.017.002-.02-.009-.002-.01.008-.02.001-.026l-.006-.006.003-.005.008-.008s.005-.01-.005-.004c-.01.005-.01.005-.014.01-.003.007-.005.012-.013.014s-.01.006-.009.01l-.002.007s-.007-.013-.01-.007c-.004.006-.017.01-.014.018l.007.021s-.022.008-.018.02c.004.013-.006.024-.006.024s.01-.027-.006-.032c-.017-.005-.016-.01-.028-.005-.011.004-.009.015-.017.017l-.007.004c-.003.002-.006.003-.019-.003-.017-.008-.017-.007-.02-.014l-.012-.004c-.004 0-.005-.002-.012 0-.006.002-.017.002-.018.004.004.009.01.025.023.025.018 0 .017 0 .023.007.007.005.01.005.018.003.009-.002.022 0 .025.007.002.007.02.008.014-.002-.004-.005-.007-.006-.008-.006v-.001l.001-.003.009-.014c.003-.002.013-.01.018-.003.005.006.008.014.009.018.001.004.01.006.013.011.003.005.016.053.017.057.001.003.006.02-.003.025-.01.006-.013.006-.01.015.004.009.007.005.004.009l-.001.001-.008.013c-.004 0-.014.001-.007.014.008.013.002.017 0 .02-.001.003-.004.006 0 .018.005.013.009.028.019.021.01-.006.005.009.005.015l-.005.006c-.002.004-.003.013.004.036.002.006-.004.02.01.021.016.001.025.006.038.022.014.016.028.032.036.05.009.02.03.033.038.042l.015.019s.008.016.029.026c.02.01.034.017.045.02.012.004.03-.001.04.008.01.01.022.024.028.025l.004.001c.005.003.01.009.01.006 0-.005.039.085.05.116.01.03.048.125.049.125 0 0 .026.05.017.044-.01-.005.01.016.015.026.005.01.006.008.014.029l.023.061.019.062s-.014 0 0 .018c.016.016.036.023.04.038.004.014-.004.03.01.043.013.012.015.033.022.031.007-.001.003.011.012.03.009.017.015.023.018.017.002-.006-.007-.02-.013-.033-.005-.013-.01-.026-.004-.024.006.003.016.02.018.025l.016.033a.219.219 0 0 1 .012.031l-.002.015s-.012-.003-.01.006a.198.198 0 0 1 .006.028s.017-.004.023-.004c.007 0 .014-.006.016-.002.001.004 0 .024-.004.026-.005.001-.005.024-.005.024s.02.023.027.028a.115.115 0 0 1 .029.025l.009.01c.015.02.025.025.025.025s.004-.004.011.003c.007.007.02.011.02.011l.006.008.014.004.03.013a.063.063 0 0 1 .027-.004c.01.002.025.002.03 0l.03-.009h.001l.01-.007c.004-.001.011-.005.016-.005a.109.109 0 0 0 .017-.004l.016-.013c-.006 0-.054.02-.093-.01-.039-.032-.02-.024-.044-.038-.023-.013-.038-.022-.026-.028.012-.006.013 0 .008-.02-.005-.02-.009-.026-.001-.03.007-.005.013.006.004-.02-.01-.027-.017-.024-.028-.021-.011.002-.023.001-.034-.014-.01-.015-.013-.031 0-.037.014-.005.012-.02.01-.025-.002-.006-.016-.006-.007-.021.009-.015.019-.02.005-.025-.014-.004-.031 0-.036-.009-.004-.009-.038-.025-.013-.028.025-.003.04.009.043-.003.003-.011.008-.013-.004-.024-.012-.012-.035-.028-.025-.03.01-.002.065-.001.073-.021.009-.02.008-.029.003-.042-.005-.013-.01-.01-.023-.021-.014-.013.012-.018-.008-.024-.02-.006-.035-.004-.039-.012v-.005c.004-.002.014 0 .029.001.023.001.03.015.047.007.018-.009.03-.009.033-.02v-.001a.194.194 0 0 0-.005-.06c-.003-.016 0-.035 0-.035s.012.005.01.018c0 .014.006.002.008-.019.001-.02-.003-.027.009-.04.012-.012.013-.016-.002-.031-.016-.016-.039-.03-.03-.042.008-.012.021-.035.028-.043.007-.008.03-.034.047-.033.017.002.054 0 .054-.002 0-.004-.016-.016 0-.016.018-.001.016-.008.016-.008l-.004-.03s.007-.018.004-.026-.005-.017-.01-.028c-.004-.012.007-.01.003-.026a2.327 2.327 0 0 0-.037-.1c-.009-.023.01-.01.016-.005.006.004-.003-.003.002-.02.004-.016-.001-.02.001-.027.003-.007.01-.012.023-.024.012-.011.022-.025.012-.05a.141.141 0 0 0-.03-.05z"/><path class="fil7" d="M4.88 3.988c-.016-.02-.014-.009-.014-.009s-.005.02-.005.03c0 .008-.005.008-.013.019l-.022.027c-.007.012-.027.01-.033.018-.006.009-.025.016-.033.027-.007.01-.005.013-.006.033-.001.02.003.021.01.038.006.018-.008.01-.019.03-.011.02-.013.015-.022.033-.008.019.003.02.008.025.005.006-.001.017-.005.03-.004.014-.001.011.014.029.015.018.03-.001.039-.001.01 0 .023-.015.023-.015l.065-.176.002-.004c-.002-.017-.002-.027.011-.027s.005-.012.005-.012-.005-.004-.006-.02c0-.015.013.006.017.003.004-.003.004-.02.002-.042-.001-.022-.001-.015-.018-.036z"/><path class="fil6" d="M1.856 2.429c.01-.005.046-.011.033-.005-.013.006-.023.015-.019.015s.023-.01.036-.014c.014-.005.02-.01.027-.015a.279.279 0 0 1 .035-.013l.026-.032-.027.006s0-.014-.006-.011c-.006.002-.014.02-.015.03 0 .009-.029.008-.029.008l.015-.01H1.9l.014-.01-.018.009.002-.018s-.013.01-.024.012c-.007 0-.013.004-.02.006l-.017.027.003-.002c.007-.004.02-.004.012.002l-.016.014c-.005.004.01.006.02 0zM1.84 2.47l-.016-.017c-.003-.001-.01.005-.017.01l-.03.051a.349.349 0 0 1 .053-.031l.01-.014zM2.204 3.029l.001-.001z"/><path class="fil7" d="M5.27 3.214a.038.038 0 0 1-.018.005l.02.026-.003-.031z"/><path class="fil6" d="m2.014 3.657-.005-.012c.004 0 .004 0 .01.003l.014.009c.007.002.013.003.011-.003s-.003-.01-.001-.02-.003-.021-.002-.026v-.014a.043.043 0 0 0-.008-.013l-.007-.009s-.007-.005-.028.002c-.02.006-.023.014-.03.012h-.004c-.005 0-.011.006-.01.002l.001-.003c.006-.012.005-.003.007-.017.003-.014 0-.01.003-.024l.004-.012-.002-.011c-.004-.013-.002-.016 0-.024.003-.007.01-.022-.008-.016-.02.005-.05.013-.045.027.004.014.004.022-.002.03-.006.007-.008.012-.006.015.003.002.002.01-.007.004-.01-.005-.015.01-.03.015-.015.004-.009-.01-.02-.007-.01.004-.008.004-.015-.005-.008-.009-.019-.01-.024-.027-.004-.017-.005-.044-.008-.06-.003-.015.003-.017.002-.023v-.005l-.002-.02c-.002-.008-.004-.015.01-.024.015-.01.011-.003.017-.015.005-.013-.011-.01.013-.017l.03-.009c.01-.002.012-.009.019-.005.007.004.012.009.018 0 .007-.008.003-.016.003-.016s-.01-.009.018-.01c.028-.002.024-.02.033-.01.009.01.014.015.019.008.005-.007.002-.018.01-.01.01.008.022.008.022.014 0 .007 0 .007.004.018.004.01.007.02.016.03.01.01.017.024.023.006.005-.019.007-.01 0-.033-.007-.024-.015-.042-.016-.044 0-.003-.017-.022.003-.047.02-.024.02-.03.032-.04.012-.009.012-.004.017-.015.006-.01.004-.015.008-.017.005-.001.002-.005.006-.006l.009-.007-.003-.01-.01.003.012-.01-.005-.01-.01.002c.004-.002.013-.007.012-.013a7.26 7.26 0 0 0-.006-.02s-.005-.033.003-.008c.008.026.006.037.013.018.008-.018.004-.026.004-.026l.008.001s.014-.024.013-.034c-.002-.01-.004-.007.012-.015s.022-.018.029-.02l.016-.005c-.003 0-.007-.002-.002-.02.006-.023.01-.03.021-.037.011-.007.012-.017.022-.02l.01-.004c.006-.002.01-.004.01-.007l.003-.009.008-.006c.009-.005.014-.013.02-.016.006-.003-.019.013-.025.028-.006.016.005.033.014.017.009-.016.007-.015.018-.019s.019-.014.027-.017c.008-.003.023-.018.027-.02a.072.072 0 0 0 .019-.02c.008-.012.002-.016-.007-.011-.008.004.001-.017-.002-.015-.004 0-.014.012-.013.019 0 .006-.008.01-.01.011a.044.044 0 0 1-.019.008c-.008.001-.022.003-.022-.003s-.003-.017.002-.022c.005-.006.006-.005.01-.013.003-.008.017-.03 0-.023-.018.007-.023.002-.037.013-.015.011-.024.025-.03.028-.005.001-.013.014-.02.025a.174.174 0 0 1-.01.016l-.003.002c-.006.003-.01-.002-.01-.002s.004-.007.012-.014c.008-.008.01-.017.019-.025s.008-.01.014-.015l.013-.012.011-.01c.003-.004 0-.012.006-.015l.042-.017c.011-.003.029-.014.034-.015.006-.001.02-.008.025-.01.005-.002.008-.004.018-.017.01-.013.007-.015.032-.028.026-.012.033-.015.033-.028 0-.013.002-.02-.002-.023-.004-.004-.014.007-.016-.004-.002-.012-.01-.004-.02.005-.008.008-.015.018-.024.021-.008.004-.021 0-.007-.009.015-.009.019-.012.028-.02.01-.006.007-.006.016-.012.009-.005.009-.007-.006-.005s-.01.005-.024.002c-.013-.002-.026-.002-.025-.012.001-.01.005 0 .007-.018.003-.018-.022-.074-.022-.074s-.01.027-.025.042c-.015.016-.026.025-.028.032-.003.007-.007.013-.011.003-.004-.01-.007-.008-.011-.008-.004 0-.028.01-.003-.016.024-.026.012-.016.01-.025-.001-.009-.009-.008-.017-.004-.008.003-.012-.002-.014-.01-.003-.01-.013-.01-.027-.003-.013.008-.022.018-.029.016-.006-.001-.029-.004-.028.018.001.022-.009.024-.007.033.002.009.005.016-.004.02-.009.003-.03.026-.015.035.015.01.016.01.014.022 0 .012-.005.042-.058.075 0 0-.002.027.001.037.004.01.002.012-.005.02-.008.009-.005.015-.014.019-.008.003-.01.009-.015-.002-.004-.01-.007 0-.007-.013 0-.014-.008-.007.002-.022.01-.016 0-.007.006-.02.006-.015.006-.022.002-.02l-.04.011s-.007-.011-.02-.007c-.013.005-.026-.016-.042-.01-.016.005-.03.012-.03.012s.01-.02.007-.03c-.003-.012-.021-.004-.021-.004s.03-.091.077-.108c.007-.003.022-.026.006-.02-.017.004.01-.01.019-.015.009-.005.005-.005.017-.01.013-.005-.005.009.016-.01.022-.02.026-.022.025-.027-.001-.005-.016.006-.024.003a.206.206 0 0 1-.013-.005l.018-.006a.065.065 0 0 0 .019-.006c.004-.003.004 0 .006-.01.001-.01 0-.013.01-.016.009-.004.01-.009.02-.008.01 0 0-.003.015-.006s-.001 0 .019-.014c.02-.015.03-.016.026-.026-.004-.01-.024 0-.009-.016.015-.016.023-.014.02-.02-.003-.007-.019-.01-.023-.008-.005.002-.01-.003-.02.008-.01.01-.007.024-.012.03-.004.006-.01.004-.017.016-.006.011-.011.011-.017.018-.007.007 0 .007-.006.007s-.015-.007-.004-.012c.011-.006.023-.01.013-.02s-.02-.014-.027-.001c-.006.013-.011.02-.013.016s-.005-.029-.009-.02c-.003.01-.017.015-.024.025-.007.01-.02.014-.024.021l-.014.023c-.005.006-.002.015-.005.016-.003.001-.007.014-.01.001-.003-.012-.006-.014-.014-.011l-.025.008a.08.08 0 0 0-.016.008l-.023.013s-.008-.015-.024-.01c-.016.006-.025.007-.03.014-.006.007-.012.014-.012.021 0 .008 0 .018-.004.016-.005-.002-.004-.007-.01-.013-.006-.007-.003-.01-.017-.005-.013.004-.052.023-.052.023s-.007-.004.009-.011c.016-.008.018-.028-.007-.02-.025.007-.029.015-.037.01a1.859 1.859 0 0 0-.186.801v.012c.007.005.007.013.01.023.006.012.008.027.014.031.007.004.016 0 .018.006.002.007.015.014.02.016.007.003 0 .002.006.011.006.01.01.002.021.013.01.011.039.017.043.034.005.017.007.018.004.027-.003.01-.01.016 0 .021.01.005.036.02.044.019l.024-.003.043.013c.013.003.008.004.022.003.013 0 .031.006.033-.002.002-.008.009-.017.017-.017.008 0 .028.017.033.02l.006.001a.133.133 0 0 0 .022.006.044.044 0 0 0 .018 0c.015-.004.01.001.024-.003h.007l.002.002c.002.004.002.01.007.012l.025.011.001.002.003-.003z"/><path class="fil7" d="M5.168 2.888h.007-.007zm-.227.401-.002.002.002-.002zm-.595-.878h-.001zm-.063.116.002.003-.002-.003zm.985.678a1.86 1.86 0 0 0-.518-1.094.042.042 0 0 0-.012.013l-.032-.006-.007.01-.024.002s.008-.007.008-.017c0-.01-.016-.005-.02-.004l-.015.008s-.014.002-.022.006a.117.117 0 0 0-.021.022l-.004.014s-.028.003-.036-.004c-.008-.007-.018-.019.002-.018.02 0-.005-.02-.022-.02-.017-.001-.021-.001-.016.019.005.02.023.028.024.038 0 .01-.007.003-.007.003s-.008-.01-.018-.01c-.01 0-.036.014-.04.022-.003.008.019.021.012.024-.007.003-.032 0-.044-.01-.013-.01-.031.003-.007.015s.017.026.006.016c-.011-.01-.02-.016-.026-.017l-.018-.002s.004-.006-.006-.018c-.01-.011-.005-.021-.005-.021s-.017-.004-.03-.014c-.012-.01.004-.005.01-.004.006 0 .034.014.058.016.025.003.059-.003.057-.018a.038.038 0 0 0-.032-.032c-.018-.002-.028-.002-.04-.016-.014-.014-.036-.018-.056-.018-.02 0-.025-.004-.032-.01-.006-.005-.033.005-.033.005s-.013-.016-.007-.016H4.3s-.007-.001-.014-.006c-.006-.006-.022-.01-.022-.01l-.002.009-.004-.019a.848.848 0 0 1-.014.01l-.01.015-.001-.017-.015.014.004-.02s-.008-.004-.02 0c-.013.005-.018.013-.018.018 0 .005-.008 0-.013 0l-.017.002s-.001.003-.013.003-.02-.009-.02 0c.002.007-.013.01-.017.012l-.005.019s-.022.004-.027 0c-.004-.003-.01.005-.01.016s-.008.012-.013.014l-.016.015-.004.017s-.002.017-.008.018c-.006.002-.016.018-.024.018-.007 0-.01.018-.016.018h-.013l-.028-.002-.005.022c-.004.003-.007.003-.018.007-.01.004-.017.004-.017.008 0 .005.008.014.008.014l.029.004H3.9l.006.027.023-.01a4.417 4.417 0 0 1-.017.025l.014.022s0 .012.029.01c.028-.003.032-.015.038-.017.005 0 .014-.026.016-.014.003.011.003.012.014.013h.004c.015.001-.019.008-.001.017.017.008.013.008.022.03.01.021.006.024.006.03.001.006.008.015.017.016.01 0 .013-.002.014-.008.001-.006.013-.005.024-.005.01 0 .02-.001.017-.021-.003-.02 0-.038 0-.038s.038-.012.032-.029c-.007-.017-.031-.012-.04-.045-.007-.032.022-.034.038-.046.017-.012.027-.022.027-.022s-.016-.006-.008-.012.008-.014.016-.013c.007 0 .021-.004.026-.004h.007c.01.002.027.005.023.01-.005.008-.001.015-.006.015l-.036.028s-.022.009-.016.028l.014.04s0 .007.01.009c.008.002.015.011.022.012h.027l.023-.001H4.3l.01-.01h.006l.01.001.017.005-.017.01-.008.006h-.054s-.037.016-.012.03l.01.01c.014.012.013.024.004.025-.012 0-.016-.009-.016-.009s-.016-.023-.034-.016c-.018.006-.017.008-.005.023.012.016.001.011.006.017.005.007-.004.012.004.018.003.003-.002.006-.007.008-.007.003-.014.005-.007.008.014.005-.03.004-.03.004l-.013-.012-.034.008-.035.01-.005-.002-.012-.003-.02-.009c-.004.004-.016.006-.022.006a.038.038 0 0 1-.02-.009c-.006-.004-.018 0-.016-.014.002-.015.004-.011.015-.018.012-.007.015-.007.01-.013-.006-.006-.019 0-.015-.01.003-.01.012-.02.004-.02-.008-.001-.015 0-.02.006l-.012.01s-.018 0-.018.006c.001.006 0 .015.002.02.002.007.02.026.02.026s-.003.019-.01.018c-.006 0 .003.002-.025.01h-.005c-.033.008-.036-.005-.045.014-.01.018 0 .022-.023.024h-.003c-.02.004-.013.008-.017.012-.002.003-.01.004-.017.006.001-.002 0-.004-.004-.006-.015-.01-.023.004-.015-.01.009-.012.014-.007.018-.018.004-.01.008-.011-.001-.015-.01-.004-.021.008-.03.001-.009-.007.003-.003-.002-.018-.006-.014 0-.016-.012-.026-.012-.01-.018-.004-.018-.004s.01-.022-.013-.03c-.022-.008-.031-.003-.031-.003s.001-.002.02-.01c.02-.007.02-.023.02-.023s-.023-.007-.032-.008c-.01 0-.018.01-.02.006 0-.004.003-.012.01-.016.009-.004.016-.01.016-.01-.013-.003-.026-.004-.04-.006 0 0-.007.012-.017.02-.01.009-.012.014-.012.022 0 .008.02.011.02.011s-.015.012-.009.012.03 0 .022.001l-.017.007.014.001s-.02.013-.015.013l.028-.002s.01-.005.011.007c.001.013.01.023.01.023s.018.005-.003.013c-.02.009-.02.009-.026.008-.006 0 .016.016.009.018-.007.003-.026-.003-.027.002-.001.004.01.011.017.012.007 0 .024.015.035-.002 0 0-.006.017-.023.015-.015-.002-.031.003-.033.023 0 0 .011-.005.032-.004.021.002.018-.002.03 0h.063c.005 0 .014 0 .02-.002l-.002.004c0 .007 0 .019-.009.018-.008 0-.01.011-.01.011s-.019.006-.03-.005c-.013-.01-.014-.008-.01.004s.009.015-.003.014H3.75s-.024-.006-.033-.005c-.008 0-.007.017-.007.023 0 .005.012-.008.03.007a.2.2 0 0 1 .035.033.084.084 0 0 1 .006.026c.001.012.008.043-.002.042l-.012.001a.104.104 0 0 0-.014.004l-.122-.02s-.053.005-.033.03l.002.007a.21.21 0 0 1 .003.03c0 .023-.015.03-.02.036-.005.007-.012.021-.003.022.009 0 .011.036.011.036s-.003.004.018.006c.018 0 .015.004.019.002l.002-.001c.007-.004.024-.006.03.01.005.016.007.019.017.018.01-.001.003-.016.02-.015.017.001.02-.003.04-.002l.03.002s.01-.017.019-.015c.008.002.009-.025.02-.024.012 0-.009-.028.009-.04.017-.011.02-.025.033-.024a.07.07 0 0 0 .025-.005l.008-.029s-.006-.02.015-.019c.02.001.043.017.057.015.014-.002.018-.01.024-.017l.002-.004c.001-.007 0-.014.022-.008.027.008.036.008.037.025.001.017 0 .011.017.025.018.014.031.026.045.03.015.006.028 0 .045.026.017.025.035.033.022.035-.014.002.004.013-.02.012h-.04c-.016 0-.022.007-.017.012.005.006.056.026.055.026l.01-.024s.016 0 .022-.01c.005-.01.01-.017.018-.017.01 0-.01-.02-.016-.024-.007-.005.006-.021.022-.002.016.019.033.006.004-.015-.03-.021-.04-.019-.046-.022-.004-.003-.007-.013-.007-.013l-.023-.008-.009-.016s-.002-.007-.018-.018-.024-.019-.024-.019-.01-.026.004-.025c.01 0 .011-.005.015-.003l.009.007a.13.13 0 0 0 .026.024c.004.004.012.018.024.023.012.005.016.012.022.014a.114.114 0 0 0 .018.002l.002.002.03.022.003.033c.004.004.011.028.02.027h.004c.005 0 .006.005.009.011a.14.14 0 0 1 .006.024l.01.016.018.009.023.003a.79.79 0 0 1-.002-.013l.007-.001-.012-.015.02.01.007-.008-.023-.025a1.69 1.69 0 0 1-.013-.02s-.004-.016.004-.006.009.006.016-.002c.006-.008-.008-.006.006-.008s.018-.008.023-.004l.002.002a.06.06 0 0 0 .023.012s-.002.003-.001.014a.08.08 0 0 0 .008.033c.003.007.01.02.017.02.007 0 .013.002.016.009l.01.02.027.003.013.002.01-.01s.01-.009.023.003c.013.011.012.012.029.012.017-.001.009-.018.018-.015.01.003.024.004.031.004l.007.003.002.007c0 .008.003.038.002.044 0 .006 0 .012-.006.017l-.001.001c-.007.006-.015.008-.014.019l.002.026c0 .006.002.029.007.05a.094.094 0 0 0 .01.03c.013.019.007.007.029.034.02.026.013.037.027.05.014.013.024.006.033.037 0 0-.005.04.013.052.018.013.024.008.035.032.011.024.024.027.034.037l.007.01v.014c0 .012-.002.02 0 .037.003.016.003.023.01.03.006.008.005.014.025.008.02-.007.004-.014.026-.014s.05-.01.05-.01 0-.018.017-.018.018-.009.031-.015c.013-.006.022-.006.023-.015.002-.009.008-.019.012-.019h.015L5 3.336c.007-.001-.012-.019.004-.019.017 0 .022.003.023-.008.001-.012.018-.016.018-.016v-.014c0-.004-.008-.019.003-.019.012 0 .005 0 .02-.012.015-.013.014-.028.01-.034-.004-.006-.004-.005-.009-.01-.005-.005-.012-.016-.015-.016-.004 0-.015 0-.022-.004-.006-.005-.015-.01-.02-.018l-.001-.007c-.003-.01-.004-.022-.004-.022s-.026.034-.036.039c-.01.005-.036 0-.042.004h-.004a.1.1 0 0 1-.034-.036c-.01-.016.002-.015-.013-.03a.206.206 0 0 1-.029-.035.028.028 0 0 1-.004-.01c0-.01.022-.042.033-.022.01.02.023.043.05.052 0 0 .011.02.03.025.02.004.042-.02.05-.011.008.007.007.03.031.034.024.004.043.013.056.013h.014a.276.276 0 0 1 .045-.002c.036.002.039-.011.046.003.008.014.004.025.027.025l.007.002c.01.005.007.02.034.017z"/><path class="fil7" d="M4.007 2.75c.012.001.013-.007.013-.016-.001-.01-.02-.016-.022-.01 0 0-.003.026.009.027z"/><path class="fil6" d="M1.598 3.535c-.011-.003-.013-.02-.02-.035-.006-.014-.018-.014-.024-.026a.137.137 0 0 0-.006-.012l.002.04.006.003.007.014a.18.18 0 0 1 .003.017l.03.013s.018.024.019.009c0-.015-.006-.02-.017-.023zM2.143 2.313c-.007.005.002.026.006.024l.027-.011.036-.015.033-.012c.01-.004.016-.012.036-.024.02-.011.018-.028.018-.028l-.038.014c-.004.001-.037.02-.076.037-.039.016.009-.02.009-.02l.047-.023.03-.016.048-.019s.018-.007.013-.01c-.005-.004-.01-.014.003-.02.013-.006.027-.015.027-.015l.004-.01.046-.028c.004-.003-.017.007-.024.01-.007.003.002-.024.01-.031.008-.008.055-.024.068-.029l.032-.016c.01-.006.019-.03.03-.035.012-.004.032-.02.043-.027l.041-.026.028-.017s-.017-.01-.038-.003c-.02.006-.024.01-.04.016l-.04.017-.053.022-.054.023c-.035.015-.032.016-.067.04s-.05.025-.066.031c-.015.007-.02.022-.02.022l.003.016.005.01s-.011.005-.016.002c-.005-.004-.017 0-.017 0s-.01.008-.016.01l-.032.013c-.008.004-.016.028-.016.028l.004.018s.014.009.02.006a.183.183 0 0 0 .026-.012.318.318 0 0 1 .029-.016l.017.002-.004.01h-.012l-.018.008c-.006.002-.012.015-.02.019l-.02.008c-.006.003-.01.011-.019.015a.098.098 0 0 1-.038.003c-.01 0-.015.024-.015.024l.025-.01s.003.02-.005.025z"/><path class="fil7" d="m3.997 2.779.002.033.012.001.004-.008.01-.002.003-.035-.01-.01h-.01L4 2.762l-.009.005.007.012z"/><path class="fil6" d="m1.795 2.578.004.013.033-.012a.11.11 0 0 0 .048-.033c.005-.006.006.003.027.004.02.001.015-.005.036-.012.02-.007-.002-.012.002-.014a.086.086 0 0 0 .03-.017c.009-.01-.032.004-.032-.018 0-.021.02-.058.02-.058.005-.001.007-.009.007-.009l-.027.01c0 .008.002.015.003.022a.02.02 0 0 0-.016-.007c-.01 0-.025.02-.021.037v.002c-.002-.005-.005-.012-.01-.006-.006.005 0-.014-.003-.006s-.016.009-.027.006c-.012-.003-.011.004-.027.007-.016.004-.02.008-.035.013-.016.005-.019.007-.023.02-.004.013.018.013.006.016-.012.004-.02.011-.016.011l.06-.007-.034.01c-.018.006-.038.012-.036.028.001.015.03 0 .03 0z"/><path class="fil7" d="M3.606 2.479c.016.005.015 0 .03-.005.015-.004.013-.004.034-.006.021-.002.006-.031.01-.036 0 0 .01.007-.002-.004-.013-.011-.02-.014.009-.012.03.002 0-.012-.007-.017-.008-.005-.011-.002-.031-.003s-.011.019-.011.019-.007.004-.021-.005c-.014-.008-.018-.002-.02.015-.001.018.005.012.016.013.011 0 0 .007-.01.009a.019.019 0 0 0-.016.018c0 .008.004.008.02.014zM3.988 1.885c.014 0 .018-.014.03-.014.013 0 .001.014.001.014-.033.007-.035.005-.01.023.026.017.02 0 .037.008.017.007.008 0 .018-.022.01-.021.006-.016.024-.018.019-.003.017.015.025.019 0 0 .019.008.036.008.018 0 .021-.007.013-.007-.007 0-.022 0-.037-.016s-.057-.024-.057-.024.012 0 .018.003c.006.002.03.005.046.005.015 0 .019 0 .038-.009.02-.007.009-.018.009-.018H4.077c-.021 0-.027.006-.058.006h-.05c-.016 0-.015.011-.014.026.002.015.02.016.033.016z"/><path d="M5.28 3.413A1.867 1.867 0 0 1 3.413 5.28V1.547c1.031 0 1.867.835 1.867 1.866z" style="fill:#0097a7"/><path class="fil7" d="M3.567 3.063h.008l.006.001h-.014zm-.154.048v.382c.004.003.005.006.014.012a.045.045 0 0 1 .014.017l.003.006v.017c0 .005.012.012.018.016l.022.011.007.004c.006.004.008.009.013.013l.04.026s.02.01.034.019c.014.01.02.004.02.004l.004-.001.015-.003s.018-.009.023-.009c.006 0 .013-.007.032-.008h.04c.016-.001.007.003.017.007a.028.028 0 0 0 .016 0h.005l.017-.007s.014-.003.019-.006c.005-.003.015-.009.024-.009.008 0 .01-.007.02-.007s.01-.009.01-.009h.006l.024-.005h.035c.013 0 .011.005.029.015.017.011.003.011 0 .024-.001.012.006.01.017.01.011 0 .023-.006.032-.006a.15.15 0 0 0 .032-.01v.001l.011.013s.008.006.019.022c.007.011.003.018 0 .024l-.005.007a.166.166 0 0 0-.007.022l-.002.01c0 .008-.011.015-.015.036-.003.017.023.047.046.068l.013.01c.006.005.01.01.013.016a.073.073 0 0 1 .006.023c.002.013.002.026.006.037.008.021.023.023.014.024-.01 0-.005.034.004.039.008.005.01.038-.01.065a.39.39 0 0 0-.05.122c-.005.029.047.122.047.123 0 0 .01.061.006.089-.002.022.018.048.026.061l.003.007c.002.009 0 .033.017.06.017.027-.012.05.005.085.017.034.033.02.058.004.026-.017.038-.002.05-.002.012 0 .04-.018.057-.018.018-.001.015-.03.051-.044.037-.014.043-.024.052-.056.01-.031.03-.041.052-.058.019-.014.02-.02.014-.04l-.003-.01c-.009-.026.05-.044.049-.044.01 0 .018-.014.024-.044.005-.03.004-.05-.011-.066-.016-.017.007-.022.018-.029A.152.152 0 0 0 4.6 4.15c.009-.01.012-.02.018-.026.006-.006.03-.014.038-.02.007-.006.021-.015.032-.03.01-.014.012-.015.009-.03-.003-.016 0-.016.003-.046.002-.03.005-.036.005-.036L4.7 3.945a.29.29 0 0 1-.009-.036c-.003-.018.001-.027-.003-.035-.005-.008-.008-.015-.008-.034 0-.018.012-.008.013-.02v-.002c0-.014.002-.02.01-.025.01-.006 0-.024.01-.027.009-.002.02-.017.023-.021v-.002l.019-.017.025-.033c.004-.008.024-.021.028-.025s.017-.006.02-.01a.165.165 0 0 1 .029-.033.107.107 0 0 0 .025-.034c.005-.011.008-.024.024-.05.016-.027.019-.081.028-.093.01-.01-.005-.006-.005-.006l-.018.013c-.007.005-.017.004-.035.004-.018 0-.014.004-.029.004-.014 0-.009.009-.022.01l-.03.003c-.008 0-.008-.01-.013-.01l-.008-.008v-.02c0-.008-.005-.013-.011-.018-.007-.005-.007-.01-.016-.02-.01-.01-.023-.023-.036-.025-.013-.003-.001-.008-.019-.03-.017-.024-.007-.01-.01-.026-.002-.007-.004-.01-.007-.011-.003-.003-.009-.004-.017-.012l-.013-.014c-.003-.006-.002-.02-.002-.025 0-.004-.016-.033-.021-.047-.006-.015-.015-.007-.011-.01.002-.003 0-.005-.003-.01a.071.071 0 0 1-.008-.02.111.111 0 0 0-.027-.052c-.013-.014-.009-.012-.01-.022 0-.01-.022-.028-.023-.035 0-.006-.007-.018-.004-.014l.016.027c.004.006.001.005.02.02.018.014.005-.004.006-.019a.08.08 0 0 0-.002-.018c-.004-.018-.011-.038-.014-.038-.004 0-.007-.002-.018-.002s-.008-.003-.02-.003c-.01 0-.008-.009-.027-.01-.018 0-.019.012-.033.017-.013.005-.039-.017-.046-.019h-.034c-.004 0-.008-.004-.013-.006l-.006-.002a.105.105 0 0 1-.029-.01L4.32 2.97c-.01-.01-.022-.002-.031-.003-.009 0-.013.012-.02.017-.007.005.001.022.001.031 0 .01-.005.003-.013.008-.007.005-.025 0-.034-.007-.01-.007-.003-.005-.011-.012S4.182 3 4.177 3c-.006 0-.01 0-.011-.014-.003-.014-.013-.017-.013-.017s-.025-.004-.036-.004c-.01 0-.02-.004-.028-.004l-.011-.009-.011-.006c-.01 0-.013-.009-.013-.009s-.007-.007-.005-.015c0-.008.008-.012.013-.019.004-.007-.005-.018-.008-.022l.01-.018s-.013.008-.014 0c0-.006-.02-.01-.02-.01l-.02.003h-.02l-.02.001-.028-.001-.044.004c-.031.003-.033.002-.038.001l-.016.002s-.02.002-.026.006c-.007.004-.008.008-.015.008-.006 0-.013 0-.026.005s0 0-.005.006l-.01.005h-.005l-.014-.005c-.005-.002-.01 0-.017-.001l-.022-.001c-.007 0-.017-.007-.017-.007s-.007-.01-.02-.012c-.011-.002-.01.005-.01.005s0 .007-.003.013c-.001.005-.008.012-.008.02 0 .006-.013.006-.017.011-.003.006-.012.005-.022.01-.01.003-.02.001-.026.01-.007.01-.016.017-.018.024-.001.007-.008.01-.008.019 0 .008.004.018.004.018l-.002.012s-.014.01-.014.02-.027.007-.027.007-.02.008-.026.013c-.005.006-.02.008-.025.01-.005.001.003.019-.026.03a.049.049 0 0 0-.026.022zM4.88 3.988c-.016-.02-.014-.009-.014-.009s-.005.02-.005.03c0 .008-.005.008-.013.019l-.022.027c-.007.012-.027.01-.033.018-.006.009-.025.016-.033.027-.007.01-.005.013-.006.033-.001.02.003.021.01.038.006.018-.008.01-.019.03-.011.02-.013.015-.022.033-.008.019.003.02.008.025.005.006-.001.017-.005.03-.004.014-.001.011.014.029.015.018.03-.001.039-.001.01 0 .023-.015.023-.015l.065-.176.002-.004c-.002-.017-.002-.027.011-.027s.005-.012.005-.012-.005-.004-.006-.02c0-.015.013.006.017.003.004-.003.004-.02.002-.042-.001-.022-.001-.015-.018-.036zM5.27 3.214a.038.038 0 0 1-.018.005l.02.026-.003-.031z"/><path class="fil7" d="M5.168 2.888h.007-.007zm-.227.401-.002.002.002-.002zm-.595-.878h-.001zm-.063.116.002.003-.002-.003zm.985.678a1.86 1.86 0 0 0-.518-1.094c-.006.003-.012.013-.012.013l-.032-.006-.007.01-.024.002s.008-.007.008-.017c0-.01-.016-.006-.02-.004l-.015.008s-.014.002-.022.006a.117.117 0 0 0-.021.022.548.548 0 0 1-.004.014s-.028.003-.036-.004c-.008-.007-.018-.019.002-.018.02 0-.005-.02-.022-.02-.017-.001-.021-.001-.016.019.005.02.023.028.024.038 0 .01-.007.003-.007.003s-.008-.01-.018-.01c-.01 0-.036.014-.04.022-.003.008.019.021.012.024-.007.003-.032 0-.044-.01-.013-.01-.031.003-.007.015s.017.026.006.016c-.011-.01-.02-.016-.026-.017l-.018-.002s.004-.006-.006-.018c-.01-.011-.005-.021-.005-.021s-.017-.004-.03-.014c-.012-.01.004-.005.01-.004.006 0 .034.014.058.016.025.003.059-.003.057-.018a.038.038 0 0 0-.032-.032c-.018-.002-.028-.002-.04-.016-.014-.014-.036-.018-.056-.018-.02 0-.025-.004-.032-.01-.006-.005-.033.005-.033.005s-.013-.016-.007-.016H4.3s-.007-.001-.013-.006c-.007-.006-.023-.01-.023-.01l-.002.009-.004-.019a.859.859 0 0 1-.014.01l-.01.015-.001-.017-.015.014.004-.02s-.008-.004-.02 0c-.013.005-.018.013-.018.018 0 .005-.008 0-.013 0l-.017.002s-.001.003-.013.003-.02-.009-.02 0c.002.007-.013.01-.017.012l-.005.019s-.022.004-.027 0c-.004-.003-.01.005-.01.016s-.008.012-.013.014l-.016.015-.004.017s-.002.017-.008.018c-.006.002-.016.018-.024.018-.007 0-.01.018-.016.018h-.013l-.028-.002-.005.022c-.004.003-.007.003-.018.007-.01.004-.017.004-.017.008 0 .005.007.014.007.014l.03.004H3.9l.006.027.023-.01a4.637 4.637 0 0 1-.017.025l.014.022s0 .012.029.01c.028-.003.032-.015.038-.017.005 0 .014-.026.016-.014.003.011.003.012.014.013h.004c.015.001-.019.008-.001.017.017.008.013.008.022.03.01.021.006.024.006.03.001.006.008.015.017.016.01 0 .013-.002.014-.008.001-.006.013-.005.024-.005.01 0 .02-.001.017-.021-.003-.02 0-.038 0-.038s.038-.012.032-.029c-.007-.017-.031-.012-.04-.045-.007-.033.022-.034.038-.046.017-.012.027-.022.027-.022s-.016-.006-.008-.012.008-.014.016-.013c.007 0 .021-.004.026-.004h.007c.01.002.027.005.023.01-.005.008-.001.015-.006.015l-.036.028s-.022.009-.016.028l.014.04s0 .007.01.009c.008.002.015.011.022.012h.027l.023-.001H4.3l.01-.01h.006l.01.001.017.005-.017.01-.008.006h-.054s-.037.016-.012.03l.01.01c.014.012.013.024.004.025a.015.015 0 0 1-.016-.009s-.016-.023-.034-.016c-.018.006-.017.008-.005.023.012.016.001.011.006.017.005.007-.004.012.004.018.003.003-.002.006-.007.008-.007.003-.014.005-.007.008.014.005-.03.004-.03.004l-.013-.012s-.022.004-.034.008l-.035.01-.005-.002-.012-.003-.02-.009c-.004.004-.016.006-.022.006a.038.038 0 0 1-.02-.009c-.006-.004-.018 0-.016-.014.002-.015.004-.011.015-.018.012-.007.015-.007.01-.013-.006-.006-.019 0-.015-.01.003-.01.012-.02.004-.02-.008-.001-.015 0-.02.006l-.012.01s-.018 0-.018.006c.001.006 0 .015.002.02.002.007.02.026.02.026s-.003.019-.01.018c-.006 0 .003.002-.025.01h-.005c-.033.008-.036-.005-.045.014-.01.018 0 .022-.023.024h-.003c-.02.004-.013.008-.017.012-.002.003-.01.004-.017.006.001-.002 0-.004-.004-.006-.015-.01-.023.004-.015-.01.009-.012.014-.007.018-.018.004-.01.008-.011-.001-.015-.01-.004-.021.008-.03.001-.009-.007.003-.003-.002-.018-.006-.014 0-.016-.012-.026-.012-.01-.018-.004-.018-.004s.01-.022-.013-.03c-.022-.008-.031-.003-.031-.003s.001-.002.02-.01c.02-.007.02-.023.02-.023s-.023-.007-.032-.008c-.01 0-.018.01-.02.006 0-.004.002-.012.01-.016.009-.004.016-.01.016-.01-.013-.003-.026-.004-.04-.006 0 0-.007.012-.017.02-.01.009-.012.014-.012.022 0 .008.02.011.02.011s-.015.012-.009.012.03 0 .022.001a.131.131 0 0 0-.017.007l.014.001s-.02.013-.015.013a.329.329 0 0 0 .028-.002s.01-.005.011.007c.001.013.01.023.01.023s.018.005-.003.013c-.02.009-.02.009-.026.008-.006 0 .016.016.009.018-.007.003-.026-.003-.027.002-.001.004.01.011.016.012.008 0 .025.015.036-.002 0 0-.006.017-.023.015-.015-.002-.031.003-.033.023 0 0 .011-.005.032-.004.021.002.018-.002.03 0h.027a.326.326 0 0 0 .056-.002l-.002.004c0 .007 0 .019-.009.018-.008 0-.01.011-.01.011s-.019.006-.03-.005c-.013-.01-.014-.008-.01.004s.009.015-.003.014H3.75s-.024-.006-.033-.005c-.008 0-.007.017-.007.023 0 .005.012-.008.03.007a.2.2 0 0 1 .035.033.085.085 0 0 1 .006.026c.001.012.008.043-.002.042l-.012.001a.103.103 0 0 0-.014.004l-.122-.02s-.053.005-.033.03l.002.007a.213.213 0 0 1 .003.03c0 .023-.015.03-.02.036-.005.007-.012.021-.003.022.009 0 .011.036.011.036s-.003.004.018.006c.018 0 .015.004.019.002l.002-.001c.007-.004.024-.006.03.01.005.016.007.019.017.018.01-.001.003-.016.02-.015.017.001.02-.003.04-.002l.03.002s.01-.017.019-.015c.008.002.009-.025.02-.024.012 0-.009-.028.009-.04.017-.011.02-.025.033-.024.013 0 .025-.005.025-.005l.008-.029s-.006-.02.015-.019c.02.001.043.017.057.015.014-.002.018-.01.024-.017l.002-.004c.001-.007 0-.014.022-.008.027.008.036.008.037.025.001.017 0 .011.017.025.018.014.031.026.045.03.015.006.028 0 .045.026.017.025.035.033.022.035-.014.002.004.013-.02.012h-.04c-.016 0-.022.007-.017.012.005.006.056.026.055.026l.01-.024s.016 0 .022-.01c.005-.01.01-.017.018-.017.01 0-.01-.02-.016-.024-.007-.005.006-.021.022-.002.016.019.033.006.004-.015-.03-.021-.04-.019-.046-.022-.004-.003-.007-.013-.007-.013l-.023-.008-.009-.016s-.002-.007-.018-.018-.024-.019-.024-.019-.01-.026.004-.025c.01 0 .011-.005.015-.003l.009.007a.13.13 0 0 0 .026.024c.004.004.012.018.024.023.012.005.016.012.022.014a.115.115 0 0 0 .018.002l.002.002.03.022.003.033c.004.004.011.028.02.027h.004c.005 0 .006.005.009.011l.006.024.01.016.018.009.023.003a.743.743 0 0 1-.002-.013l.007-.001-.012-.015.02.01.007-.008a7.337 7.337 0 0 0-.023-.025l-.013-.02s-.004-.016.004-.006.009.006.016-.002c.006-.008-.008-.006.006-.008s.018-.008.023-.004l.002.002a.06.06 0 0 0 .023.012s-.002.003-.001.014a.08.08 0 0 0 .008.033c.003.007.01.02.017.02.007 0 .013.002.016.009l.01.02.027.003.013.002.01-.01s.01-.009.023.003c.013.011.012.012.029.012.017-.001.009-.018.018-.015.01.003.024.004.031.004l.007.003.002.007c0 .008.003.038.002.044 0 .006 0 .012-.006.017l-.001.001c-.007.006-.015.008-.014.019l.002.026c0 .006.002.029.007.05a.094.094 0 0 0 .01.03c.013.019.007.007.029.034.021.026.013.037.027.05.014.013.024.006.033.037 0 0-.005.04.013.052.018.013.024.008.035.032.011.024.024.027.034.037l.007.01v.014c0 .012-.002.02 0 .037.003.016.003.023.01.03.006.008.005.014.025.008.02-.007.004-.014.026-.014s.05-.01.05-.01 0-.018.017-.018.018-.009.031-.015c.013-.006.022-.006.023-.015.002-.009.008-.019.012-.019h.015L5 3.336c.007-.001-.012-.019.004-.019.017 0 .022.003.023-.008.001-.012.018-.016.018-.016v-.014c0-.004-.008-.019.003-.019.012 0 .005 0 .02-.012.015-.013.014-.028.01-.034-.004-.006-.004-.005-.009-.01-.005-.005-.012-.016-.015-.016-.004 0-.015 0-.022-.004-.006-.005-.015-.01-.02-.018l-.001-.007c-.003-.01-.004-.022-.004-.022s-.026.034-.036.039c-.01.005-.036 0-.042.004h-.004a.1.1 0 0 1-.034-.036c-.01-.016.002-.015-.013-.03a.207.207 0 0 1-.029-.035.028.028 0 0 1-.004-.01c0-.01.022-.042.033-.022.01.02.023.043.05.052 0 0 .011.02.03.025.02.004.042-.02.05-.011.008.007.007.03.031.034.024.004.043.013.056.013h.014a.276.276 0 0 1 .045-.002c.036.002.039-.011.046.003.008.014.004.025.027.025l.007.002c.01.005.007.02.034.017z"/><path class="fil7" d="M4.007 2.75c.012.001.013-.007.013-.016-.001-.01-.02-.016-.022-.01 0 0-.003.026.009.027zM3.997 2.779l.002.033.012.001.004-.008.01-.002.003-.035-.01-.01h-.01L4 2.762l-.009.005.007.012zM3.606 2.479c.016.005.015 0 .03-.005.015-.004.013-.004.034-.006.021-.002.006-.031.01-.036 0 0 .01.007-.002-.004-.013-.011-.02-.014.009-.012.03.002 0-.012-.007-.017-.008-.005-.011-.002-.031-.003s-.011.019-.011.019-.007.004-.021-.005c-.014-.008-.018-.002-.02.015-.001.018.005.012.016.013.011 0 0 .007-.01.009a.019.019 0 0 0-.016.018c0 .008.004.008.02.014zM3.988 1.885c.014 0 .018-.014.03-.014.013 0 .001.014.001.014-.033.007-.035.005-.01.023.026.017.02 0 .037.008.017.007.008 0 .018-.022.01-.021.006-.016.024-.018.019-.003.017.015.025.019 0 0 .019.008.036.008.018 0 .021-.007.013-.007-.007 0-.022 0-.037-.016s-.057-.024-.057-.024.012 0 .018.003c.006.002.03.005.046.005.015 0 .019 0 .038-.009.02-.007.009-.018.009-.018H4.077c-.021 0-.027.006-.058.006h-.05c-.016 0-.015.011-.014.026.002.015.02.016.033.016z"/></g></svg>